<svg xmlns="http://www.w3.org/2000/svg" width="216.928" height="45.928" viewBox="0 0 216.928 45.928"><defs><style>.a{fill:#121212;}</style></defs><g transform="translate(-229.402 -779.378)"><g transform="translate(285.795 783.809)"><path class="a" d="M381.459,814.742v4.134h-.179a6.608,6.608,0,0,0-5.065-1.9c-1.818,0-3.1.872-3.1,2.124,0,1.024.749,1.479,3.21,1.63,4.458.266,6.206,2.01,6.206,5.612,0,3.489-2.532,5.65-6.705,5.65-2.782,0-4.957-.606-6.348-1.744v-4.209h.179a7.6,7.6,0,0,0,5.992,2.427c1.961,0,3.174-.834,3.174-2.123,0-1.175-.749-1.706-3.46-1.933-4.351-.379-5.957-1.82-5.957-5.195,0-3.489,2.675-5.764,6.706-5.764A9.836,9.836,0,0,1,381.459,814.742Z" transform="translate(-369.403 -805.073)"/><path class="a" d="M411.131,839.451l3.246-7.773-6.741-17.215H411.7l4.672,12.892h.071l4.708-12.892h3.887l-10.022,24.988Z" transform="translate(-393.262 -805.703)"/><path class="a" d="M486.634,821.113v10.5h-3.781V821.53c0-2.92-1.213-4.475-3.46-4.475-2.532,0-3.852,1.782-3.852,5.384v9.176h-3.78V821.53c0-2.92-1.213-4.475-3.5-4.475-2.5,0-3.817,1.782-3.817,5.081v9.48h-3.78V813.833h3.138l.107,2.578h.071a5.982,5.982,0,0,1,10.45.228h.071c1.034-2.123,2.889-3.185,5.849-3.185C484.387,813.453,486.634,816.221,486.634,821.113Z" transform="translate(-426.357 -805.073)"/><path class="a" d="M558.2,822.744c0,5.384-3.495,9.252-8.274,9.252a7,7,0,0,1-5.529-2.275h-.071v9.1h-3.781V813.833h3.174l.107,2.54h.071a6.889,6.889,0,0,1,6.028-2.92C554.709,813.453,558.2,817.359,558.2,822.744Zm-3.816,0c0-3.375-2.1-5.688-5.065-5.688-3,0-5.1,2.313-5.1,5.688,0,3.3,2.1,5.65,5.1,5.65C552.283,828.394,554.388,826.042,554.388,822.744Z" transform="translate(-476.206 -805.073)"/><path class="a" d="M612.346,807.279v10.428h-3.781v-9.972c0-2.92-1.462-4.589-3.887-4.589-2.675,0-4.28,1.934-4.28,5.233v9.328h-3.781V791.163H600.4v10.693h.071a6.263,6.263,0,0,1,5.172-2.313C609.813,799.543,612.346,802.425,612.346,807.279Z" transform="translate(-511.195 -791.163)"/><path class="a" d="M664.41,822.744c0,5.422-3.71,9.252-8.917,9.252s-8.88-3.829-8.88-9.252c0-5.461,3.673-9.291,8.88-9.291S664.41,817.283,664.41,822.744Zm-13.982,0c0,3.3,2.069,5.65,5.065,5.65,3.032,0,5.1-2.352,5.1-5.65,0-3.375-2.069-5.688-5.1-5.688C652.5,817.056,650.428,819.369,650.428,822.744Z" transform="translate(-542.395 -805.073)"/><path class="a" d="M718.789,821.189v10.428h-3.781v-9.972c0-2.92-1.462-4.589-3.887-4.589-2.675,0-4.28,1.934-4.28,5.233v9.328h-3.781V813.833h3.174l.143,2.73h.071a5.946,5.946,0,0,1,5.635-3.11C716.256,813.453,718.789,816.335,718.789,821.189Z" transform="translate(-577.62 -805.073)"/><path class="a" d="M753.61,839.451l3.245-7.773-6.741-17.215h4.066l4.672,12.892h.071l4.708-12.892h3.887L757.5,839.451Z" transform="translate(-606.985 -805.703)"/></g><g transform="translate(229.402 779.378)"><path class="a" d="M266.391,820.488l-.128.068-.114.059-.173.091A2.775,2.775,0,0,1,266.391,820.488Z" transform="translate(-252.226 -805.033)"/><path class="a" d="M235.988,782.671a3.294,3.294,0,0,1-4.626,3.012,3.317,3.317,0,0,1-1.96-3.012,3.294,3.294,0,0,1,6.573-.307C235.985,782.465,235.988,782.566,235.988,782.671Z" transform="translate(-229.402 -779.378)"/><path class="a" d="M234.684,853.777a2.6,2.6,0,0,0-.068.6" transform="translate(-232.656 -825.807)"/><path class="a" d="M235.988,887.323a3.292,3.292,0,0,1-5.93,1.97v0a3.252,3.252,0,0,1-.656-1.967,3.293,3.293,0,0,1,6.4-1.088A3.238,3.238,0,0,1,235.988,887.323Z" transform="translate(-229.402 -844.688)"/><path class="a" d="M253.321,842.681v8.455l-1.457.774-.026.013-.055.029-.082.042-3.731,1.986-7.948,4.227a4.379,4.379,0,0,0-4.074-2.773h-1.333v-9.689a2.6,2.6,0,0,1,.069-.6,2.677,2.677,0,0,1,3.564-1.9h0a2.677,2.677,0,0,1,1.715,2.5v6.433l8-4.257v-6.086a2.675,2.675,0,0,1,2.558-1.892,2.833,2.833,0,0,1,2.793,2.738Z" transform="translate(-232.655 -817.174)"/><path class="a" d="M285.727,824.075l-6.939,3.691-2.355,1.248-.088.049-.141.075a2.649,2.649,0,0,1-1.159.265,2.677,2.677,0,0,1-1.274-5.028l.114-.059,7.634-4.064-9.255-4.92-5.622,2.989a2.681,2.681,0,0,1-2.721-4.616l.173-.091.114-.059.127-.068,2.228-1.186,5.7-3.031,1.385.738,4.315,2.293L286,816.578a4.364,4.364,0,0,0-2.264,3.829,4.53,4.53,0,0,0,.137,1.1h0A4.36,4.36,0,0,0,285.727,824.075Z" transform="translate(-250.171 -798.032)"/><path class="a" d="M250.528,795.9a2.676,2.676,0,0,1-3.835,2.411l-.114-.059-6.612-3.515V803.7l.653.346,4.3,2.29.124.065.023.013a2.674,2.674,0,0,1-1.307,5.008,2.65,2.65,0,0,1-1.16-.265l-.114-.059-1.865-.993-.657-.346-3.345-1.781h0l0,0-1.091-.582-.006,0a2.689,2.689,0,0,1-.9-2v-12.63a4.384,4.384,0,0,0,1.333.206,4.185,4.185,0,0,0,.611-.042,4.385,4.385,0,0,0,3.407-2.6,4.277,4.277,0,0,0,.35-1.464l8.7,4.626.114.059A2.672,2.672,0,0,1,250.528,795.9Z" transform="translate(-232.655 -785.3)"/><path class="a" d="M328.14,833.307a3.225,3.225,0,0,1-.075.693,3.291,3.291,0,0,1-3.218,2.6c-.036,0-.075,0-.111,0h0a3.254,3.254,0,0,1-1.114-.235,3.29,3.29,0,0,1-.846-5.609l0,0,.006,0a3.334,3.334,0,0,1,1.111-.588h0l.006,0,.053-.03.02.01a3.221,3.221,0,0,1,.872-.117A3.291,3.291,0,0,1,328.14,833.307Z" transform="translate(-286.909 -810.98)"/><path class="a" d="M274.458,839.943a2.679,2.679,0,0,0-1.5.458" transform="translate(-256.586 -817.174)"/></g></g></svg>