<svg xmlns="http://www.w3.org/2000/svg" xmlns:xlink="http://www.w3.org/1999/xlink" width="16" height="16" viewBox="0 0 16 16">
  <defs>
    <clipPath id="clip-favicon">
      <rect width="16" height="16"/>
    </clipPath>
  </defs>
  <g id="favicon" clip-path="url(#clip-favicon)">
    <g id="Group_3543" data-name="Group 3543" transform="translate(-227.573 -778.253)">
      <path id="Path_440" data-name="Path 440" d="M266.1,820.488l-.038.021-.034.018-.052.027A.834.834,0,0,1,266.1,820.488Z" transform="translate(-32.458 -36.483)" fill="#b48d60"/>
      <path id="Path_441" data-name="Path 441" d="M231.374,780.364a.986.986,0,0,1-1.385.9.993.993,0,0,1-.587-.9.986.986,0,0,1,1.968-.092C231.373,780.3,231.374,780.332,231.374,780.364Z" transform="translate(0 0)" fill="#b48d60"/>
      <path id="Path_442" data-name="Path 442" d="M234.636,853.777a.778.778,0,0,0-.02.18" transform="translate(-4.627 -66.026)" fill="#b48d60"/>
      <path id="Path_443" data-name="Path 443" d="M231.374,885.019a.985.985,0,0,1-1.775.59h0a.973.973,0,0,1-.2-.589.986.986,0,0,1,1.916-.326A.969.969,0,0,1,231.374,885.019Z" transform="translate(0 -92.877)" fill="#b48d60"/>
      <path id="Path_444" data-name="Path 444" d="M240.215,840.763v2.531l-.436.232-.008,0-.017.009-.024.013-1.117.595-2.379,1.266a1.311,1.311,0,0,0-1.22-.83h-.4v-2.9a.779.779,0,0,1,.021-.18.8.8,0,0,1,1.067-.568h0a.8.8,0,0,1,.513.748v1.926l2.4-1.274v-1.822a.8.8,0,0,1,.766-.566.848.848,0,0,1,.836.82Z" transform="translate(-4.626 -53.749)" fill="#b48d60"/>
      <path id="Path_445" data-name="Path 445" d="M269.581,813.7l-2.077,1.105-.705.374-.026.015-.042.023a.793.793,0,0,1-.347.079.8.8,0,0,1-.381-1.505l.034-.018,2.285-1.217-2.771-1.473-1.683.895a.8.8,0,0,1-.815-1.382l.052-.027.034-.018.038-.021.667-.355,1.706-.907.415.221,1.292.687,2.406,1.28a1.306,1.306,0,0,0-.678,1.146,1.356,1.356,0,0,0,.041.33h0A1.305,1.305,0,0,0,269.581,813.7Z" transform="translate(-29.535 -26.528)" fill="#b48d60"/>
      <path id="Path_446" data-name="Path 446" d="M239.379,790.973a.8.8,0,0,1-1.148.722l-.034-.018-1.979-1.052v2.684l.2.1,1.288.686.037.019.007,0a.8.8,0,0,1-.391,1.5.794.794,0,0,1-.347-.079l-.034-.018-.558-.3-.2-.1-1-.533h0l-.327-.174h0a.8.8,0,0,1-.27-.6v-3.781a1.313,1.313,0,0,0,.4.062,1.251,1.251,0,0,0,.183-.013,1.312,1.312,0,0,0,1.02-.777,1.281,1.281,0,0,0,.1-.438l2.6,1.385.034.018A.8.8,0,0,1,239.379,790.973Z" transform="translate(-4.626 -8.421)" fill="#b48d60"/>
      <path id="Path_447" data-name="Path 447" d="M323.526,831a.965.965,0,0,1-.023.207.985.985,0,0,1-.963.778h-.034a.972.972,0,0,1-.333-.07.985.985,0,0,1-.253-1.679h0a1,1,0,0,1,.332-.176h0l.016-.009.006,0a.964.964,0,0,1,.261-.035A.985.985,0,0,1,323.526,831Z" transform="translate(-81.781 -44.941)" fill="#b48d60"/>
      <path id="Path_448" data-name="Path 448" d="M273.41,839.943a.8.8,0,0,0-.448.137" transform="translate(-38.658 -53.749)" fill="#b48d60"/>
    </g>
  </g>
</svg>
