<svg xmlns="http://www.w3.org/2000/svg" width="109.67" height="122.166" viewBox="0 0 109.67 122.166">
  <g id="Group_3543" data-name="Group 3543" transform="translate(-229.402 -779.378)">
    <path id="Path_440" data-name="Path 440" d="M267.079,820.488l-.339.182-.3.157-.46.243A7.39,7.39,0,0,1,267.079,820.488Z" fill="#b48d60"/>
    <path id="Path_441" data-name="Path 441" d="M246.92,788.137a8.763,8.763,0,0,1-12.3,8.011,8.824,8.824,0,0,1-5.213-8.011,8.761,8.761,0,0,1,17.483-.817C246.911,787.589,246.92,787.859,246.92,788.137Z" fill="#b48d60"/>
    <path id="Path_442" data-name="Path 442" d="M234.8,853.777a6.919,6.919,0,0,0-.182,1.6" fill="#b48d60"/>
    <path id="Path_443" data-name="Path 443" d="M246.92,892.784a8.755,8.755,0,0,1-15.772,5.24v-.009a8.65,8.65,0,0,1-1.746-5.231,8.759,8.759,0,0,1,17.023-2.893A8.617,8.617,0,0,1,246.92,892.784Z" fill="#b48d60"/>
    <path id="Path_444" data-name="Path 444" d="M284.371,847.225v22.489l-3.875,2.059-.07.035-.147.078-.217.113-9.924,5.283L249,888.526a11.647,11.647,0,0,0-10.836-7.377h-3.546V855.376a6.92,6.92,0,0,1,.183-1.6,7.121,7.121,0,0,1,9.48-5.049h.009a7.121,7.121,0,0,1,4.562,6.648v17.11l21.289-11.323V844.975a7.116,7.116,0,0,1,6.8-5.032,7.536,7.536,0,0,1,7.429,7.282Z" fill="#b48d60"/>
    <path id="Path_445" data-name="Path 445" d="M323.978,848.65l-18.456,9.819-6.265,3.32-.235.13-.374.2a7.047,7.047,0,0,1-3.084.7,7.12,7.12,0,0,1-3.389-13.373l.3-.157,20.307-10.809L288.169,825.4l-14.955,7.951a7.131,7.131,0,0,1-7.238-12.278l.46-.243.3-.157.339-.182,5.927-3.155,15.154-8.063,3.685,1.963,11.478,6.1L324.7,828.708a11.607,11.607,0,0,0-6.021,10.184,12.044,12.044,0,0,0,.365,2.928h.008A11.6,11.6,0,0,0,323.978,848.65Z" fill="#b48d60"/>
    <path id="Path_446" data-name="Path 446" d="M276.942,807.584A7.118,7.118,0,0,1,266.74,814l-.3-.157-17.587-9.35v23.844l1.738.921,11.444,6.092.33.173.061.035a7.113,7.113,0,0,1-3.476,13.321,7.05,7.05,0,0,1-3.085-.7l-.3-.156-4.961-2.642-1.747-.921-8.9-4.736h-.009l-.008-.008-2.9-1.547-.017-.009a7.15,7.15,0,0,1-2.4-5.326V799.233a11.656,11.656,0,0,0,3.546.548,11.131,11.131,0,0,0,1.625-.113,11.663,11.663,0,0,0,9.063-6.908,11.378,11.378,0,0,0,.93-3.893l23.131,12.3.3.156A7.107,7.107,0,0,1,276.942,807.584Z" fill="#b48d60"/>
    <path id="Path_447" data-name="Path 447" d="M339.072,838.768a8.571,8.571,0,0,1-.2,1.842,8.752,8.752,0,0,1-8.559,6.917c-.1,0-.2,0-.3-.009h-.008a8.655,8.655,0,0,1-2.963-.625,8.751,8.751,0,0,1-2.251-14.92l.009-.009.017-.009a8.86,8.86,0,0,1,2.954-1.564h.009l.017-.008.14-.079.052.026a8.558,8.558,0,0,1,2.32-.312A8.754,8.754,0,0,1,339.072,838.768Z" fill="#b48d60"/>
    <path id="Path_448" data-name="Path 448" d="M276.942,839.943a7.126,7.126,0,0,0-3.98,1.217" fill="#b48d60"/>
  </g>
</svg>
