<svg
    xmlns="http://www.w3.org/2000/svg" width="48" height="48" viewBox="0 0 48 48">
    <defs>
        <style>.a{fill:#000;}</style>
    </defs>
    <g transform="translate(-229.402 -779.378)">
        <g transform="translate(229.402 779.378)">
            <path class="a" d="M266.391,820.488l-.128.068-.114.059-.173.091A2.775,2.775,0,0,1,266.391,820.488Z" transform="translate(-252.226 -805.033)"/>
            <path class="a" d="M235.988,782.671a3.294,3.294,0,0,1-4.626,3.012,3.317,3.317,0,0,1-1.96-3.012,3.294,3.294,0,0,1,6.573-.307C235.985,782.465,235.988,782.566,235.988,782.671Z" transform="translate(-229.402 -779.378)"/>
            <path class="a" d="M234.684,853.777a2.6,2.6,0,0,0-.068.6" transform="translate(-232.656 -825.807)"/>
            <path class="a" d="M235.988,887.323a3.292,3.292,0,0,1-5.93,1.97v0a3.252,3.252,0,0,1-.656-1.967,3.293,3.293,0,0,1,6.4-1.088A3.238,3.238,0,0,1,235.988,887.323Z" transform="translate(-229.402 -844.688)"/>
            <path class="a" d="M253.321,842.681v8.455l-1.457.774-.026.013-.055.029-.082.042-3.731,1.986-7.948,4.227a4.379,4.379,0,0,0-4.074-2.773h-1.333v-9.689a2.6,2.6,0,0,1,.069-.6,2.677,2.677,0,0,1,3.564-1.9h0a2.677,2.677,0,0,1,1.715,2.5v6.433l8-4.257v-6.086a2.675,2.675,0,0,1,2.558-1.892,2.833,2.833,0,0,1,2.793,2.738Z" transform="translate(-232.655 -817.174)"/>
            <path class="a" d="M285.727,824.075l-6.939,3.691-2.355,1.248-.088.049-.141.075a2.649,2.649,0,0,1-1.159.265,2.677,2.677,0,0,1-1.274-5.028l.114-.059,7.634-4.064-9.255-4.92-5.622,2.989a2.681,2.681,0,0,1-2.721-4.616l.173-.091.114-.059.127-.068,2.228-1.186,5.7-3.031,1.385.738,4.315,2.293L286,816.578a4.364,4.364,0,0,0-2.264,3.829,4.53,4.53,0,0,0,.137,1.1h0A4.36,4.36,0,0,0,285.727,824.075Z" transform="translate(-250.171 -798.032)"/>
            <path class="a" d="M250.528,795.9a2.676,2.676,0,0,1-3.835,2.411l-.114-.059-6.612-3.515V803.7l.653.346,4.3,2.29.124.065.023.013a2.674,2.674,0,0,1-1.307,5.008,2.65,2.65,0,0,1-1.16-.265l-.114-.059-1.865-.993-.657-.346-3.345-1.781h0l0,0-1.091-.582-.006,0a2.689,2.689,0,0,1-.9-2v-12.63a4.384,4.384,0,0,0,1.333.206,4.185,4.185,0,0,0,.611-.042,4.385,4.385,0,0,0,3.407-2.6,4.277,4.277,0,0,0,.35-1.464l8.7,4.626.114.059A2.672,2.672,0,0,1,250.528,795.9Z" transform="translate(-232.655 -785.3)"/>
            <path class="a" d="M328.14,833.307a3.225,3.225,0,0,1-.075.693,3.291,3.291,0,0,1-3.218,2.6c-.036,0-.075,0-.111,0h0a3.254,3.254,0,0,1-1.114-.235,3.29,3.29,0,0,1-.846-5.609l0,0,.006,0a3.334,3.334,0,0,1,1.111-.588h0l.006,0,.053-.03.02.01a3.221,3.221,0,0,1,.872-.117A3.291,3.291,0,0,1,328.14,833.307Z" transform="translate(-286.909 -810.98)"/>
            <path class="a" d="M274.458,839.943a2.679,2.679,0,0,0-1.5.458" transform="translate(-256.586 -817.174)"/>
        </g>
    </g>
</svg>